<svg xmlns="http://www.w3.org/2000/svg" width="771" height="552" fill="none" viewBox="0 0 771 552">
  <ellipse cx="737.5" cy="54" fill="#142D55" rx="13.5" ry="13"/>
  <path fill="#fff" stroke="#142D55" stroke-dasharray="2 2" d="M770.616 257.909c.168.665.284 1.35.341 2.05l-.498.041a12.252 12.252 0 0 1 0 2l.498.041c-.057.7-.173 1.385-.341 2.05l-.485-.122a12.05 12.05 0 0 1-.649 1.888l.458.2c-.28.638-.611 1.249-.988 1.83l-.419-.272a12.638 12.638 0 0 1-1.22 1.584l.37.336c-.464.513-.969.991-1.511 1.428l-.314-.388c-.517.417-1.069.797-1.65 1.135l.251.432a13.64 13.64 0 0 1-1.873.904l-.183-.466c-.616.242-1.256.439-1.915.588l.11.488c-.668.151-1.355.254-2.057.306l-.037-.499a13.335 13.335 0 0 1-2.008 0l-.037.499a14.025 14.025 0 0 1-2.057-.306l.11-.488a13.194 13.194 0 0 1-1.915-.588l-.183.466a13.64 13.64 0 0 1-1.873-.904l.251-.432a13.209 13.209 0 0 1-1.65-1.135l-.314.388a13.261 13.261 0 0 1-1.511-1.428l.37-.336a12.638 12.638 0 0 1-1.22-1.584l-.419.272a12.844 12.844 0 0 1-.988-1.83l.458-.2a12.05 12.05 0 0 1-.649-1.888l-.485.122a12.513 12.513 0 0 1-.341-2.05l.498-.041a12.252 12.252 0 0 1 0-2l-.498-.041c.057-.7.173-1.385.341-2.05l.485.122c.165-.65.382-1.281.649-1.888l-.458-.2c.28-.638.611-1.249.988-1.83l.419.272c.364-.559.772-1.089 1.22-1.584l-.37-.336c.464-.513.969-.991 1.511-1.428l.314.388a13.209 13.209 0 0 1 1.65-1.135l-.251-.432a13.64 13.64 0 0 1 1.873-.904l.183.466a13.194 13.194 0 0 1 1.915-.588l-.11-.488a14.025 14.025 0 0 1 2.057-.306l.037.499a13.335 13.335 0 0 1 2.008 0l.037-.499c.702.052 1.389.155 2.057.306l-.11.488c.659.149 1.299.346 1.915.588l.183-.466a13.64 13.64 0 0 1 1.873.904l-.251.432c.581.338 1.133.718 1.65 1.135l.314-.388c.542.437 1.047.915 1.511 1.428l-.37.336c.448.495.856 1.025 1.22 1.584l.419-.272c.377.581.708 1.192.988 1.83l-.458.2c.267.607.484 1.238.649 1.888l.485-.122Zm-677-49c.168.665.284 1.35.341 2.05l-.498.041a12.207 12.207 0 0 1 0 2l.498.041c-.057.7-.173 1.385-.341 2.05l-.485-.122a12.15 12.15 0 0 1-.648 1.888l.457.2c-.28.638-.61 1.249-.988 1.83l-.42-.272a12.545 12.545 0 0 1-1.22 1.584l.371.336c-.464.513-.97.991-1.51 1.428l-.315-.388c-.517.417-1.069.797-1.65 1.135l.25.432c-.595.346-1.221.649-1.872.904l-.183-.466c-.616.242-1.256.439-1.915.588l.11.488c-.668.151-1.355.254-2.057.306l-.037-.499a13.346 13.346 0 0 1-2.008 0l-.037.499a14.022 14.022 0 0 1-2.057-.306l.11-.488a13.194 13.194 0 0 1-1.915-.588l-.183.466a13.621 13.621 0 0 1-1.873-.904l.251-.432a13.204 13.204 0 0 1-1.65-1.135l-.314.388a13.323 13.323 0 0 1-1.511-1.428l.37-.336a12.545 12.545 0 0 1-1.22-1.584l-.419.272a12.785 12.785 0 0 1-.988-1.83l.457-.2a12.112 12.112 0 0 1-.648-1.888l-.485.122a12.535 12.535 0 0 1-.341-2.05l.498-.041a12.207 12.207 0 0 1 0-2l-.498-.041c.057-.7.173-1.385.341-2.05l.485.122c.165-.65.382-1.281.648-1.888l-.457-.2c.28-.638.61-1.249.988-1.83l.42.272c.363-.559.771-1.089 1.22-1.584l-.371-.336c.464-.513.97-.991 1.51-1.428l.315.388a13.204 13.204 0 0 1 1.65-1.135l-.25-.432a13.621 13.621 0 0 1 1.872-.904l.183.466a13.205 13.205 0 0 1 1.915-.588l-.11-.488a14.021 14.021 0 0 1 2.057-.306l.037.499a13.346 13.346 0 0 1 2.008 0l.037-.499c.702.052 1.389.155 2.057.306l-.11.488c.659.149 1.299.346 1.915.588l.183-.466a13.64 13.64 0 0 1 1.873.904l-.251.432c.581.338 1.133.718 1.65 1.135l.314-.388c.542.437 1.047.915 1.511 1.428l-.37.336c.448.495.856 1.025 1.22 1.584l.419-.272c.377.581.709 1.192.988 1.83l-.457.2c.266.607.483 1.238.648 1.888l.485-.122Zm79.24-152.419c.064.662.107 1.33.128 2.003l-.5.016a29.653 29.653 0 0 1 0 1.982l.5.016a30.827 30.827 0 0 1-.128 2.004l-.498-.048a30.06 30.06 0 0 1-.252 1.96l.494.08a31.391 31.391 0 0 1-.385 1.972l-.487-.112a31.33 31.33 0 0 1-.503 1.912l.479.143a31.745 31.745 0 0 1-.635 1.905l-.469-.173c-.229.62-.477 1.23-.744 1.831l.457.203a31.426 31.426 0 0 1-.873 1.81l-.443-.232c-.305.585-.629 1.16-.97 1.724l.428.258a32.217 32.217 0 0 1-1.093 1.686l-.411-.285a32.123 32.123 0 0 1-1.177 1.59l.393.31a32.35 32.35 0 0 1-1.292 1.539l-.373-.333c-.438.491-.892.97-1.361 1.435l.352.355c-.475.472-.964.93-1.468 1.372l-.33-.375c-.495.435-1.003.856-1.524 1.263l.307.394c-.527.411-1.067.808-1.619 1.188l-.284-.412a33.91 33.91 0 0 1-1.662 1.075l.259.428a34.81 34.81 0 0 1-1.749.99l-.233-.442a34 34 0 0 1-1.777.873l.207.455c-.607.277-1.224.537-1.851.78l-.18-.466a34.69 34.69 0 0 1-1.866.662l.153.476c-.635.204-1.278.392-1.929.561l-.126-.484c-.636.166-1.28.314-1.931.444l.098.49c-.653.13-1.314.243-1.98.337l-.07-.495c-.65.092-1.306.165-1.968.22l.042.5c-.663.055-1.332.092-2.005.111l-.014-.5a35.63 35.63 0 0 1-1.986 0l-.014.5a35.948 35.948 0 0 1-2.005-.112l.042-.498a35.042 35.042 0 0 1-1.968-.221l-.07.495a35.424 35.424 0 0 1-1.98-.337l.098-.49a34.391 34.391 0 0 1-1.931-.444l-.126.484a34.987 34.987 0 0 1-1.929-.561l.153-.476a34.69 34.69 0 0 1-1.866-.662l-.18.466a34.321 34.321 0 0 1-1.851-.78l.207-.455a34.247 34.247 0 0 1-1.777-.873l-.233.442a34.501 34.501 0 0 1-1.749-.99l.259-.428a33.978 33.978 0 0 1-1.662-1.075l-.284.412a34.35 34.35 0 0 1-1.619-1.188l.307-.394a33.695 33.695 0 0 1-1.524-1.263l-.33.375c-.504-.443-.993-.9-1.468-1.372l.352-.355a32.145 32.145 0 0 1-1.361-1.435l-.373.333a32.35 32.35 0 0 1-1.292-1.539l.393-.31a32.123 32.123 0 0 1-1.177-1.59l-.411.285a32.217 32.217 0 0 1-1.093-1.686l.428-.258a31.289 31.289 0 0 1-.97-1.724l-.443.232a31.426 31.426 0 0 1-.873-1.81l.457-.203a31.029 31.029 0 0 1-.744-1.83l-.469.172a31.766 31.766 0 0 1-.635-1.905l.479-.143a31.33 31.33 0 0 1-.503-1.912l-.487.112a31.391 31.391 0 0 1-.385-1.973l.494-.08c-.105-.646-.189-1.3-.252-1.96l-.498.049a30.827 30.827 0 0 1-.128-2.004l.5-.016a29.653 29.653 0 0 1 0-1.982l-.5-.016c.021-.673.064-1.341.128-2.004l.498.048c.063-.66.147-1.313.252-1.96l-.494-.08a31.5 31.5 0 0 1 .385-1.972l.487.112a31.33 31.33 0 0 1 .503-1.912l-.479-.143c.192-.643.404-1.279.635-1.905l.469.173c.229-.62.477-1.23.744-1.831l-.457-.203c.272-.613.563-1.217.873-1.81l.443.232c.305-.585.629-1.16.97-1.724l-.428-.259c.347-.573.711-1.135 1.093-1.685l.411.285c.376-.542.768-1.072 1.177-1.59l-.393-.31a32.35 32.35 0 0 1 1.292-1.539l.373.333c.438-.491.892-.97 1.361-1.436l-.352-.354c.475-.472.964-.93 1.468-1.372l.33.375a33.695 33.695 0 0 1 1.524-1.263l-.307-.394a34.279 34.279 0 0 1 1.619-1.188l.284.412a33.978 33.978 0 0 1 1.662-1.075l-.259-.428a34.501 34.501 0 0 1 1.749-.99l.233.442a34.247 34.247 0 0 1 1.777-.873l-.207-.455a34.321 34.321 0 0 1 1.851-.78l.18.466a34.69 34.69 0 0 1 1.866-.662l-.153-.476a34.987 34.987 0 0 1 1.929-.561l.126.484c.636-.166 1.28-.314 1.931-.444l-.098-.49c.653-.13 1.314-.243 1.98-.337l.07.495c.65-.092 1.306-.165 1.968-.22l-.042-.5a35.948 35.948 0 0 1 2.005-.111l.014.5a35.63 35.63 0 0 1 1.986 0l.014-.5c.673.019 1.342.056 2.005.112l-.042.498c.662.056 1.318.13 1.968.221l.07-.495c.666.094 1.327.207 1.98.337l-.098.49c.651.13 1.295.278 1.931.444l.126-.484c.651.17 1.294.357 1.929.561l-.153.476c.63.204 1.252.424 1.866.662l.18-.466c.627.243 1.244.503 1.851.78l-.207.455a34 34 0 0 1 1.777.873l.233-.442a34.81 34.81 0 0 1 1.749.99l-.259.428c.565.343 1.12.701 1.662 1.075l.284-.412c.552.38 1.092.777 1.619 1.188l-.307.394c.521.407 1.029.828 1.524 1.263l.33-.375c.504.443.993.9 1.468 1.372l-.352.354c.469.466.923.945 1.361 1.436l.373-.333c.447.5.878 1.013 1.292 1.539l-.393.31c.409.518.801 1.048 1.177 1.59l.411-.285c.382.55.746 1.112 1.093 1.685l-.428.26c.341.563.665 1.138.97 1.723l.443-.232c.31.593.601 1.197.873 1.81l-.457.203c.267.6.515 1.212.744 1.83l.469-.172c.231.626.443 1.262.635 1.905l-.479.143c.187.63.355 1.267.503 1.912l.487-.112c.149.65.277 1.308.385 1.973l-.494.08c.105.646.189 1.3.252 1.96l.498-.049Z"/>
  <path fill="#E0E9F9" fill-rule="evenodd" d="M504.764 21.574c40.412 3.445 81.901-6.653 118.798 9.936 39.858 17.92 74.91 47.49 94.611 86.015 20.061 39.228 20.11 84.617 14.956 128.241-5.263 44.554-14.693 90.564-44.784 124.25-30.001 33.585-74.549 50.931-119.181 59.305-41.949 7.87-83.396-3.098-124.763-13.537-42.804-10.802-92.662-14.325-120.255-48.296-27.454-33.802-24.4-82.379-20.921-125.519 2.97-36.823 28.72-66.014 39.23-101.475C355.391 96.85 334.908 37.208 371.96 10.06c36.384-26.657 87.615 7.661 132.804 11.514Z" clip-rule="evenodd"/>
  <path fill="#142D55" fill-rule="evenodd" d="M692.944 47.057c9.353-.804 17.652 7.035 23.703 15.589 5.549 7.844 7.47 18.037 7.348 28.304-.121 10.092-2.113 20.283-8.012 27.511-5.967 7.31-14.492 10.742-23.039 10.53-8.369-.208-15.835-5.02-22.099-11.651-6.76-7.157-14.168-15.609-13.834-26.39.329-10.612 9.195-16.91 15.412-24.505 6.339-7.743 11.477-18.611 20.521-19.388Z" clip-rule="evenodd"/>
  <ellipse cx="173.5" cy="178" fill="#142D55" rx="13.5" ry="13"/>
  <path fill="#142D55" fill-rule="evenodd" d="M31.056 371.943c-9.353.804-17.652-7.035-23.703-15.589-5.55-7.844-7.47-18.037-7.348-28.304.12-10.092 2.113-20.283 8.012-27.511 5.967-7.31 14.492-10.742 23.039-10.53 8.369.208 15.835 5.02 22.099 11.651 6.76 7.157 14.168 15.609 13.834 26.39-.329 10.612-9.195 16.911-15.412 24.505-6.339 7.743-11.477 18.611-20.521 19.388Z" clip-rule="evenodd"/>
  <path fill="#E0E9F9" fill-rule="evenodd" d="M209.934 229.876c19.868-4.276 32.519-34.663 52.407-30.482 17.649 3.71 17.946 31.373 27.23 47.222 7.785 13.289 22.815 23.741 23.414 39.236.624 16.173-17.937 27.293-20.226 43.308-2.161 15.128 11.064 29.801 7.652 44.685-3.446 15.028-16.621 25.2-26.37 36.955-11.704 14.112-19.468 35.863-37.146 39.627-17.707 3.771-33.83-11.971-49.538-21.168-12.941-7.577-21.293-21.427-34.68-28.138-16.633-8.34-39.141-2.822-52.754-15.698-13.195-12.48-21.578-33.292-18.156-51.371 3.633-19.194 26.42-27.752 36.296-44.471 7.426-12.572 5.925-29.137 14.252-41.1 8.619-12.383 19.724-24.993 34.161-28.454 14.606-3.501 28.779 13.009 43.458 9.849Z" clip-rule="evenodd"/>
  <path fill="#142D55" fill-rule="evenodd" d="M501.87 132.049c51.283-1.771 90.142 44.908 126.667 84.724 36.883 40.206 78.535 82.719 79.445 139.959.919 57.837-32.836 110.55-74.916 144.965-37.023 30.279-85.405 18.102-131.196 23.603-56.343 6.769-117.302 48.492-163.206 11.765-47.706-38.169-56.6-116.037-47.482-180.333 8.059-56.825 54.244-91.53 91.7-131.474 36.367-38.783 68.47-91.464 118.988-93.209Z" clip-rule="evenodd"/>
</svg>
