<svg xmlns="http://www.w3.org/2000/svg" width="771" height="592" fill="none" viewBox="0 0 771 592">
  <ellipse cx="743.5" cy="53" fill="#142D55" rx="13.5" ry="13"/>
  <path fill="#142D55" stroke="#fff" stroke-dasharray="2 2" d="M770.616 252.909c.168.665.284 1.35.341 2.05l-.498.041a12.252 12.252 0 0 1 0 2l.498.041c-.057.7-.173 1.385-.341 2.05l-.485-.122a12.05 12.05 0 0 1-.649 1.888l.458.2c-.28.638-.611 1.249-.988 1.83l-.419-.272a12.638 12.638 0 0 1-1.22 1.584l.37.336c-.464.513-.969.991-1.511 1.428l-.314-.388c-.517.417-1.069.797-1.65 1.135l.251.432a13.64 13.64 0 0 1-1.873.904l-.183-.466c-.616.242-1.256.439-1.915.588l.11.488c-.668.151-1.355.254-2.057.306l-.037-.499a13.335 13.335 0 0 1-2.008 0l-.037.499a14.025 14.025 0 0 1-2.057-.306l.11-.488a13.194 13.194 0 0 1-1.915-.588l-.183.466a13.64 13.64 0 0 1-1.873-.904l.251-.432a13.209 13.209 0 0 1-1.65-1.135l-.314.388a13.261 13.261 0 0 1-1.511-1.428l.37-.336a12.638 12.638 0 0 1-1.22-1.584l-.419.272a12.844 12.844 0 0 1-.988-1.83l.458-.2a12.05 12.05 0 0 1-.649-1.888l-.485.122a12.513 12.513 0 0 1-.341-2.05l.498-.041a12.252 12.252 0 0 1 0-2l-.498-.041c.057-.7.173-1.385.341-2.05l.485.122c.165-.65.382-1.281.649-1.888l-.458-.2c.28-.638.611-1.249.988-1.83l.419.272c.364-.559.772-1.089 1.22-1.584l-.37-.336c.464-.513.969-.991 1.511-1.428l.314.388a13.209 13.209 0 0 1 1.65-1.135l-.251-.432a13.64 13.64 0 0 1 1.873-.904l.183.466a13.194 13.194 0 0 1 1.915-.588l-.11-.488a14.025 14.025 0 0 1 2.057-.306l.037.499a13.335 13.335 0 0 1 2.008 0l.037-.499c.702.052 1.389.155 2.057.306l-.11.488c.659.149 1.299.346 1.915.588l.183-.466a13.64 13.64 0 0 1 1.873.904l-.251.432c.581.338 1.133.718 1.65 1.135l.314-.388c.542.437 1.047.915 1.511 1.428l-.37.336c.448.495.856 1.025 1.22 1.584l.419-.272c.377.581.708 1.192.988 1.83l-.458.2c.267.607.484 1.238.649 1.888l.485-.122Zm-677-4c.168.665.284 1.35.341 2.05l-.498.041a12.207 12.207 0 0 1 0 2l.498.041c-.057.7-.173 1.385-.341 2.05l-.485-.122a12.15 12.15 0 0 1-.648 1.888l.457.2c-.28.638-.61 1.249-.988 1.83l-.42-.272a12.545 12.545 0 0 1-1.22 1.584l.371.336c-.464.513-.97.991-1.51 1.428l-.315-.388c-.517.417-1.069.797-1.65 1.135l.25.432c-.595.346-1.221.649-1.872.904l-.183-.466c-.616.242-1.256.439-1.915.588l.11.488c-.668.151-1.355.254-2.057.306l-.037-.499a13.346 13.346 0 0 1-2.008 0l-.037.499a14.022 14.022 0 0 1-2.057-.306l.11-.488a13.194 13.194 0 0 1-1.915-.588l-.183.466a13.621 13.621 0 0 1-1.873-.904l.251-.432a13.204 13.204 0 0 1-1.65-1.135l-.314.388a13.323 13.323 0 0 1-1.511-1.428l.37-.336a12.545 12.545 0 0 1-1.22-1.584l-.419.272a12.785 12.785 0 0 1-.988-1.83l.457-.2a12.112 12.112 0 0 1-.648-1.888l-.485.122a12.535 12.535 0 0 1-.341-2.05l.498-.041a12.207 12.207 0 0 1 0-2l-.498-.041c.057-.7.173-1.385.341-2.05l.485.122c.165-.65.382-1.281.648-1.888l-.457-.2c.28-.638.61-1.249.988-1.83l.42.272c.363-.559.771-1.089 1.22-1.584l-.371-.336c.464-.513.97-.991 1.51-1.428l.315.388a13.204 13.204 0 0 1 1.65-1.135l-.25-.432a13.621 13.621 0 0 1 1.872-.904l.183.466a13.205 13.205 0 0 1 1.915-.588l-.11-.488a14.021 14.021 0 0 1 2.057-.306l.037.499a13.346 13.346 0 0 1 2.008 0l.037-.499c.702.052 1.389.155 2.057.306l-.11.488c.659.149 1.299.346 1.915.588l.183-.466a13.64 13.64 0 0 1 1.873.904l-.251.432c.581.338 1.133.718 1.65 1.135l.314-.388c.542.437 1.047.915 1.511 1.428l-.37.336c.448.495.856 1.025 1.22 1.584l.419-.272c.377.581.709 1.192.988 1.83l-.457.2c.266.607.483 1.238.648 1.888l.485-.122Zm79.24-152.419c.064.662.107 1.33.128 2.003l-.5.016a29.653 29.653 0 0 1 0 1.982l.5.016a30.872 30.872 0 0 1-.128 2.004l-.498-.048a30.03 30.03 0 0 1-.252 1.959l.494.08a31.39 31.39 0 0 1-.385 1.973l-.487-.112a31.187 31.187 0 0 1-.503 1.912l.479.143a31.727 31.727 0 0 1-.635 1.905l-.469-.173c-.229.62-.477 1.23-.744 1.831l.457.203a31.374 31.374 0 0 1-.873 1.81l-.443-.232c-.305.585-.629 1.16-.97 1.724l.428.259a32.114 32.114 0 0 1-1.093 1.685l-.411-.285a32.477 32.477 0 0 1-1.177 1.591l.393.309a32.06 32.06 0 0 1-1.292 1.539l-.373-.333c-.438.491-.892.97-1.361 1.435l.352.355c-.475.472-.964.929-1.468 1.372l-.33-.375c-.495.435-1.003.856-1.524 1.263l.307.394c-.527.411-1.067.807-1.619 1.188l-.284-.412a33.91 33.91 0 0 1-1.662 1.075l.259.428a34.81 34.81 0 0 1-1.749.99l-.233-.442a34 34 0 0 1-1.777.873l.207.455c-.607.277-1.224.537-1.851.78l-.18-.466c-.614.238-1.236.458-1.866.662l.153.476c-.635.204-1.278.392-1.929.561l-.126-.484c-.636.166-1.28.314-1.931.444l.098.49c-.653.13-1.314.243-1.98.337l-.07-.495a35.23 35.23 0 0 1-1.968.221l.042.498c-.663.056-1.332.093-2.005.112l-.014-.5a36.419 36.419 0 0 1-1.986 0l-.014.5a35.852 35.852 0 0 1-2.005-.112l.042-.498a35.23 35.23 0 0 1-1.968-.221l-.07.495a35.702 35.702 0 0 1-1.98-.337l.098-.49a34.045 34.045 0 0 1-1.931-.444l-.126.484a35.338 35.338 0 0 1-1.929-.561l.153-.476a34.953 34.953 0 0 1-1.866-.662l-.18.466a34.404 34.404 0 0 1-1.851-.78l.207-.455a34 34 0 0 1-1.777-.873l-.233.442a34.81 34.81 0 0 1-1.749-.99l.259-.428a33.91 33.91 0 0 1-1.662-1.075l-.284.412a34.494 34.494 0 0 1-1.619-1.188l.307-.394a34.239 34.239 0 0 1-1.524-1.263l-.33.375c-.504-.443-.993-.9-1.468-1.372l.352-.355a32.293 32.293 0 0 1-1.361-1.435l-.373.333a32.06 32.06 0 0 1-1.292-1.539l.393-.309a32.477 32.477 0 0 1-1.177-1.591l-.411.285a32.114 32.114 0 0 1-1.093-1.685l.428-.259a31.308 31.308 0 0 1-.97-1.724l-.443.232a31.374 31.374 0 0 1-.873-1.81l.457-.203a30.747 30.747 0 0 1-.744-1.831l-.469.173a31.727 31.727 0 0 1-.635-1.905l.479-.143a31.187 31.187 0 0 1-.503-1.912l-.487.112a31.39 31.39 0 0 1-.385-1.973l.494-.08a30.03 30.03 0 0 1-.252-1.959l-.498.048a30.872 30.872 0 0 1-.128-2.004l.5-.016a29.665 29.665 0 0 1 0-1.982l-.5-.016c.021-.673.064-1.341.128-2.004l.498.048c.063-.66.147-1.313.252-1.96l-.494-.08a31.5 31.5 0 0 1 .385-1.972l.487.112a31.33 31.33 0 0 1 .503-1.912l-.479-.143c.192-.643.404-1.279.635-1.905l.469.173c.229-.62.477-1.23.744-1.831l-.457-.203c.272-.613.563-1.217.873-1.81l.443.232c.305-.585.629-1.16.97-1.724l-.428-.258a31.73 31.73 0 0 1 1.093-1.686l.411.285c.376-.542.768-1.072 1.177-1.59l-.393-.31a32.35 32.35 0 0 1 1.292-1.539l.373.333c.438-.491.892-.97 1.361-1.435l-.352-.355c.475-.472.964-.93 1.468-1.372l.33.375a33.695 33.695 0 0 1 1.524-1.263l-.307-.394a34.279 34.279 0 0 1 1.619-1.188l.284.412a33.978 33.978 0 0 1 1.662-1.075l-.259-.428a34.501 34.501 0 0 1 1.749-.99l.233.442a34.247 34.247 0 0 1 1.777-.873l-.207-.455a34.321 34.321 0 0 1 1.851-.78l.18.466a34.69 34.69 0 0 1 1.866-.662l-.153-.476a34.987 34.987 0 0 1 1.929-.561l.126.484c.636-.166 1.28-.314 1.931-.444l-.098-.49c.653-.13 1.314-.243 1.98-.337l.07.495c.65-.092 1.306-.165 1.968-.22l-.042-.5a35.948 35.948 0 0 1 2.005-.111l.014.5a35.63 35.63 0 0 1 1.986 0l.014-.5c.673.019 1.342.056 2.005.112l-.042.498c.662.056 1.318.13 1.968.221l.07-.495c.666.094 1.327.207 1.98.337l-.098.49c.651.13 1.295.278 1.931.444l.126-.484c.651.17 1.294.357 1.929.561l-.153.476c.63.204 1.252.424 1.866.662l.18-.466c.627.243 1.244.503 1.851.78l-.207.455a34 34 0 0 1 1.777.873l.233-.442a34.81 34.81 0 0 1 1.749.99l-.259.428c.565.343 1.12.701 1.662 1.075l.284-.412c.552.38 1.092.777 1.619 1.188l-.307.394c.521.407 1.029.828 1.524 1.263l.33-.375c.504.443.993.9 1.468 1.372l-.352.355c.469.465.923.944 1.361 1.435l.373-.333c.447.5.878 1.013 1.292 1.539l-.393.31c.409.518.801 1.048 1.177 1.59l.411-.285c.382.55.746 1.112 1.093 1.686l-.428.258c.341.564.665 1.139.97 1.724l.443-.232c.31.593.601 1.197.873 1.81l-.457.203c.267.6.515 1.212.744 1.83l.469-.172c.231.626.443 1.262.635 1.905l-.479.143c.187.63.355 1.267.503 1.912l.487-.112c.149.65.277 1.308.385 1.973l-.494.08c.105.647.189 1.3.252 1.96l.498-.049Z"/>
  <path fill="#E0E9F9" fill-rule="evenodd" d="M508.043 23.571c41.062 3.765 83.219-7.269 120.709 10.856 40.5 19.58 76.116 51.888 96.134 93.98 20.383 42.86 20.433 92.452 15.197 140.115-5.348 48.679-14.93 98.949-45.505 135.754-30.483 36.695-75.748 55.647-121.098 64.797-42.625 8.599-84.739-3.385-126.771-14.791-43.493-11.802-94.154-15.65-122.19-52.767-27.897-36.932-24.794-90.007-21.258-137.141 3.018-40.233 29.182-72.127 39.861-110.872 13.144-47.685-7.668-112.85 29.98-142.51 36.969-29.126 89.025 8.37 134.941 12.58Z" clip-rule="evenodd"/>
  <path fill="#fff" fill-rule="evenodd" d="M712.944 66.057c9.353-.804 17.652 7.035 23.703 15.589 5.549 7.844 7.47 18.037 7.348 28.304-.121 10.092-2.113 20.283-8.012 27.511-5.967 7.31-14.492 10.742-23.039 10.53-8.369-.208-15.835-5.02-22.099-11.651-6.76-7.157-14.168-15.609-13.834-26.39.329-10.612 9.195-16.91 15.412-24.505 6.339-7.743 11.477-18.611 20.521-19.388Z" clip-rule="evenodd"/>
  <ellipse cx="173.5" cy="218" fill="#fff" rx="13.5" ry="13"/>
  <path fill="#fff" fill-rule="evenodd" d="M31.056 411.943c-9.353.804-17.652-7.035-23.703-15.589-5.55-7.844-7.47-18.037-7.348-28.304.12-10.092 2.113-20.283 8.012-27.511 5.967-7.31 14.492-10.742 23.039-10.53 8.369.208 15.835 5.02 22.099 11.651 6.76 7.157 14.168 15.609 13.834 26.39-.329 10.612-9.195 16.911-15.412 24.505-6.339 7.743-11.477 18.611-20.521 19.388Z" clip-rule="evenodd"/>
  <path fill="#E0E9F9" fill-rule="evenodd" d="M209.934 269.876c19.868-4.276 32.519-34.663 52.407-30.482 17.649 3.71 17.946 31.373 27.23 47.222 7.785 13.289 22.815 23.741 23.414 39.236.624 16.173-17.937 27.293-20.226 43.308-2.161 15.128 11.064 29.801 7.652 44.685-3.446 15.028-16.621 25.2-26.37 36.955-11.704 14.112-19.468 35.863-37.146 39.627-17.707 3.771-33.83-11.971-49.538-21.168-12.941-7.577-21.293-21.427-34.68-28.138-16.633-8.34-39.141-2.822-52.754-15.698-13.195-12.48-21.578-33.292-18.156-51.371 3.633-19.194 26.42-27.752 36.296-44.471 7.426-12.572 5.925-29.137 14.252-41.1 8.619-12.383 19.724-24.993 34.161-28.454 14.606-3.501 28.779 13.009 43.458 9.849Z" clip-rule="evenodd"/>
  <path fill="#fff" fill-rule="evenodd" d="M501.87 172.049c51.283-1.771 90.142 44.908 126.667 84.724 36.883 40.206 78.535 82.719 79.445 139.959.919 57.837-32.836 110.55-74.916 144.965-37.023 30.279-85.405 18.102-131.196 23.603-56.343 6.769-117.302 48.492-163.206 11.765-47.706-38.169-56.6-116.037-47.482-180.333 8.059-56.825 54.244-91.53 91.7-131.474 36.367-38.783 68.47-91.464 118.988-93.209Z" clip-rule="evenodd"/>
</svg>
