<svg xmlns="http://www.w3.org/2000/svg" xmlns:xlink="http://www.w3.org/1999/xlink" width="814" zoomAndPan="magnify" viewBox="0 0 610.5 610.499981" height="814" preserveAspectRatio="xMidYMid meet" version="1.0"><path fill="#142d55" d="M 562 48 C 563.890625 49.890625 565.734375 51.828125 567.527344 53.808594 C 569.324219 55.789062 571.070312 57.8125 572.765625 59.878906 C 574.460938 61.945312 576.105469 64.054688 577.699219 66.199219 C 579.292969 68.347656 580.832031 70.535156 582.316406 72.757812 C 583.800781 74.980469 585.230469 77.238281 586.605469 79.53125 C 587.980469 81.824219 589.296875 84.148438 590.558594 86.507812 C 591.820312 88.867188 593.019531 91.253906 594.164062 93.667969 C 595.308594 96.085938 596.390625 98.53125 597.414062 101 C 598.4375 103.46875 599.398438 105.964844 600.300781 108.480469 C 601.199219 111 602.039062 113.535156 602.8125 116.09375 C 603.589844 118.652344 604.304688 121.230469 604.953125 123.824219 C 605.601562 126.417969 606.1875 129.023438 606.710938 131.648438 C 607.230469 134.269531 607.6875 136.902344 608.082031 139.546875 C 608.472656 142.191406 608.800781 144.84375 609.0625 147.503906 C 609.324219 150.164062 609.519531 152.832031 609.652344 155.5 C 609.785156 158.171875 609.847656 160.84375 609.847656 163.519531 C 609.847656 166.191406 609.785156 168.863281 609.652344 171.535156 C 609.519531 174.203125 609.324219 176.871094 609.0625 179.53125 C 608.800781 182.191406 608.472656 184.84375 608.082031 187.488281 C 607.6875 190.132812 607.230469 192.765625 606.710938 195.390625 C 606.1875 198.011719 605.601562 200.617188 604.953125 203.210938 C 604.304688 205.804688 603.589844 208.382812 602.8125 210.941406 C 602.039062 213.5 601.199219 216.035156 600.300781 218.554688 C 599.398438 221.070312 598.4375 223.566406 597.414062 226.035156 C 596.390625 228.503906 595.308594 230.949219 594.164062 233.367188 C 593.019531 235.78125 591.820312 238.171875 590.558594 240.527344 C 589.296875 242.886719 587.980469 245.210938 586.605469 247.503906 C 585.230469 249.796875 583.800781 252.054688 582.316406 254.277344 C 580.832031 256.503906 579.292969 258.6875 577.699219 260.835938 C 576.105469 262.980469 574.460938 265.089844 572.765625 267.15625 C 571.070312 269.222656 569.324219 271.246094 567.527344 273.226562 C 565.734375 275.207031 563.890625 277.144531 562 279.035156 L 279.035156 562 C 277.144531 563.890625 275.210938 565.734375 273.226562 567.527344 C 271.246094 569.324219 269.222656 571.070312 267.15625 572.765625 C 265.089844 574.460938 262.984375 576.105469 260.835938 577.699219 C 258.6875 579.292969 256.503906 580.832031 254.28125 582.316406 C 252.054688 583.800781 249.796875 585.230469 247.503906 586.605469 C 245.210938 587.980469 242.886719 589.296875 240.527344 590.558594 C 238.171875 591.820312 235.78125 593.019531 233.367188 594.164062 C 230.949219 595.304688 228.503906 596.390625 226.035156 597.414062 C 223.566406 598.4375 221.070312 599.398438 218.554688 600.296875 C 216.039062 601.199219 213.5 602.039062 210.941406 602.8125 C 208.382812 603.589844 205.804688 604.304688 203.214844 604.953125 C 200.621094 605.601562 198.011719 606.1875 195.390625 606.710938 C 192.765625 607.230469 190.132812 607.6875 187.488281 608.082031 C 184.84375 608.472656 182.191406 608.800781 179.53125 609.0625 C 176.871094 609.324219 174.203125 609.519531 171.535156 609.652344 C 168.863281 609.78125 166.191406 609.847656 163.519531 609.847656 C 160.84375 609.847656 158.171875 609.78125 155.503906 609.652344 C 152.832031 609.519531 150.167969 609.324219 147.503906 609.0625 C 144.84375 608.800781 142.191406 608.472656 139.546875 608.082031 C 136.902344 607.6875 134.269531 607.230469 131.648438 606.710938 C 129.023438 606.1875 126.417969 605.601562 123.824219 604.953125 C 121.230469 604.304688 118.652344 603.589844 116.09375 602.8125 C 113.535156 602.039062 111 601.199219 108.480469 600.296875 C 105.964844 599.398438 103.472656 598.4375 101 597.414062 C 98.53125 596.390625 96.085938 595.304688 93.671875 594.164062 C 91.253906 593.019531 88.867188 591.820312 86.507812 590.558594 C 84.148438 589.296875 81.824219 587.980469 79.53125 586.605469 C 77.238281 585.230469 74.980469 583.800781 72.757812 582.316406 C 70.535156 580.832031 68.347656 579.292969 66.199219 577.699219 C 64.054688 576.105469 61.945312 574.460938 59.878906 572.765625 C 57.8125 571.070312 55.789062 569.324219 53.808594 567.527344 C 51.828125 565.734375 49.890625 563.890625 48 562 C 46.109375 560.109375 44.265625 558.171875 42.472656 556.191406 C 40.675781 554.210938 38.929688 552.1875 37.234375 550.121094 C 35.539062 548.054688 33.894531 545.945312 32.300781 543.800781 C 30.707031 541.652344 29.167969 539.464844 27.683594 537.242188 C 26.199219 535.019531 24.769531 532.761719 23.394531 530.46875 C 22.019531 528.175781 20.703125 525.851562 19.441406 523.492188 C 18.183594 521.132812 16.980469 518.746094 15.835938 516.332031 C 14.695312 513.914062 13.609375 511.46875 12.585938 509 C 11.5625 506.53125 10.601562 504.035156 9.703125 501.519531 C 8.800781 499 7.960938 496.464844 7.1875 493.90625 C 6.410156 491.347656 5.699219 488.769531 5.046875 486.175781 C 4.398438 483.582031 3.8125 480.976562 3.292969 478.351562 C 2.769531 475.730469 2.3125 473.097656 1.921875 470.453125 C 1.527344 467.808594 1.199219 465.15625 0.9375 462.496094 C 0.675781 459.835938 0.480469 457.167969 0.347656 454.5 C 0.21875 451.828125 0.152344 449.15625 0.152344 446.480469 C 0.152344 443.808594 0.21875 441.136719 0.347656 438.464844 C 0.480469 435.796875 0.675781 433.128906 0.9375 430.46875 C 1.199219 427.808594 1.527344 425.15625 1.921875 422.511719 C 2.3125 419.867188 2.769531 417.234375 3.292969 414.609375 C 3.8125 411.988281 4.398438 409.382812 5.046875 406.789062 C 5.699219 404.195312 6.410156 401.617188 7.1875 399.058594 C 7.960938 396.5 8.800781 393.964844 9.703125 391.445312 C 10.601562 388.929688 11.5625 386.433594 12.585938 383.964844 C 13.609375 381.496094 14.695312 379.050781 15.835938 376.632812 C 16.980469 374.21875 18.183594 371.828125 19.441406 369.472656 C 20.703125 367.113281 22.019531 364.789062 23.394531 362.496094 C 24.769531 360.203125 26.199219 357.945312 27.683594 355.722656 C 29.167969 353.496094 30.707031 351.3125 32.300781 349.164062 C 33.894531 347.019531 35.539062 344.910156 37.234375 342.84375 C 38.929688 340.777344 40.675781 338.753906 42.472656 336.773438 C 44.265625 334.792969 46.109375 332.855469 48 330.964844 L 330.964844 48 C 332.855469 46.109375 334.792969 44.265625 336.773438 42.472656 C 338.753906 40.675781 340.777344 38.929688 342.84375 37.234375 C 344.910156 35.539062 347.019531 33.894531 349.164062 32.300781 C 351.3125 30.707031 353.5 29.167969 355.722656 27.683594 C 357.945312 26.199219 360.203125 24.769531 362.496094 23.394531 C 364.789062 22.019531 367.113281 20.703125 369.472656 19.441406 C 371.832031 18.179688 374.21875 16.980469 376.632812 15.835938 C 379.050781 14.695312 381.496094 13.609375 383.964844 12.585938 C 386.433594 11.5625 388.929688 10.601562 391.445312 9.703125 C 393.964844 8.800781 396.5 7.960938 399.058594 7.1875 C 401.617188 6.410156 404.195312 5.695312 406.789062 5.046875 C 409.382812 4.398438 411.988281 3.8125 414.613281 3.289062 C 417.234375 2.769531 419.867188 2.3125 422.511719 1.917969 C 425.15625 1.527344 427.808594 1.199219 430.46875 0.9375 C 433.128906 0.675781 435.796875 0.480469 438.464844 0.347656 C 441.136719 0.21875 443.808594 0.152344 446.484375 0.152344 C 449.15625 0.152344 451.828125 0.21875 454.5 0.347656 C 457.167969 0.480469 459.835938 0.675781 462.496094 0.9375 C 465.15625 1.199219 467.808594 1.527344 470.453125 1.917969 C 473.097656 2.3125 475.730469 2.769531 478.355469 3.289062 C 480.976562 3.8125 483.582031 4.398438 486.175781 5.046875 C 488.769531 5.695312 491.347656 6.410156 493.90625 7.1875 C 496.464844 7.960938 499 8.800781 501.519531 9.703125 C 504.035156 10.601562 506.53125 11.5625 509 12.585938 C 511.46875 13.609375 513.914062 14.695312 516.332031 15.835938 C 518.746094 16.980469 521.136719 18.179688 523.492188 19.441406 C 525.851562 20.703125 528.175781 22.019531 530.46875 23.394531 C 532.761719 24.769531 535.019531 26.199219 537.242188 27.683594 C 539.46875 29.167969 541.652344 30.707031 543.800781 32.300781 C 545.949219 33.894531 548.054688 35.539062 550.121094 37.234375 C 552.1875 38.929688 554.210938 40.675781 556.191406 42.472656 C 558.171875 44.265625 560.109375 46.109375 562 48 Z M 562 48 " fill-opacity="1" fill-rule="evenodd"/></svg>